<?xml version="1.0" encoding="UTF-8"?>
<svg xmlns="http://www.w3.org/2000/svg" version="1.1" viewBox="0 0 841.9 595.3">
  <defs>
    <style>
      .cls-1 {
        fill: #fff;
      }

      .cls-2 {
        fill: #2e3191;
      }

      .cls-3 {
        fill: #231f20;
      }

      .cls-4 {
        fill: #8a898c;
      }
    </style>
  </defs>
  <!-- Generator: Adobe Illustrator 28.7.1, SVG Export Plug-In . SVG Version: 1.2.0 Build 142)  -->
  <g>
    <g id="Capa_1">
      <g>
        <rect class="cls-1" x="125.4" y="151.6" width="566.9" height="276.7"/>
        <g>
          <path class="cls-3" d="M203.2,402v11h-3.7v-23.8h3.7v9.2h16.7v-9.2h3.7v23.8h-3.7v-11h-16.7Z"/>
          <path class="cls-3" d="M240.4,413v-23.8h22.3v3.5h-18.6v5.9h12.2v3.4h-12.2v7.5h19.6v3.4h-23.3Z"/>
          <path class="cls-3" d="M281.5,402.7v10.4h-3.7v-23.7h16.4c2.4,0,4.3.6,5.7,1.8,1.4,1.2,2.1,2.8,2.1,4.9s-.5,3.1-1.6,4.4c-1.1,1.2-2.5,2-4.2,2.3l6.6,10.4h-4l-6.7-10.4h-10.3ZM281.5,399.2h12.6c1.3,0,2.3-.3,2.9-.8.7-.6,1-1.4,1-2.4s-.3-1.8-1-2.4c-.7-.5-1.7-.8-2.9-.8h-12.6v6.4Z"/>
          <path class="cls-3" d="M321.3,402.7v10.4h-3.7v-23.7h16.4c2.4,0,4.3.6,5.7,1.8,1.4,1.2,2.1,2.8,2.1,4.9s-.5,3.1-1.6,4.4c-1.1,1.2-2.5,2-4.2,2.3l6.6,10.4h-4l-6.7-10.4h-10.3ZM321.3,399.2h12.6c1.3,0,2.3-.3,2.9-.8.7-.6,1-1.4,1-2.4s-.3-1.8-1-2.4c-.7-.5-1.7-.8-2.9-.8h-12.6v6.4Z"/>
          <path class="cls-3" d="M354.5,413l12.1-23.8h2.3l12.2,23.8h-4l-3.1-6h-12.5l-3.1,6h-3.9ZM363.1,403.9h9.3l-4.6-9.1-4.7,9.1Z"/>
          <path class="cls-3" d="M394.3,413v-23.8h3.1l9.7,13.9,9.7-13.9h3.1v23.8h-3.7v-17.1l-9.1,13.2-9.1-13.2v17.1h-3.7Z"/>
          <path class="cls-3" d="M436.8,413v-23.8h3.8v23.8h-3.8Z"/>
          <path class="cls-3" d="M457.4,413v-23.8h22.3v3.5h-18.6v5.9h12.2v3.4h-12.2v7.5h19.6v3.4h-23.3Z"/>
          <path class="cls-3" d="M494.8,413v-23.8h1.9l15.1,16.7v-16.7h3.6v23.8h-1.9l-15.1-16.6v16.6h-3.7Z"/>
          <path class="cls-3" d="M538.8,413v-20.4h-10v-3.3h23.8v3.3h-10v20.4h-3.7Z"/>
          <path class="cls-3" d="M558.6,413l12.1-23.8h2.3l12.2,23.8h-4l-3.1-6h-12.5l-3.1,6h-3.9ZM567.2,403.9h9.3l-4.6-9.1-4.7,9.1Z"/>
          <path class="cls-3" d="M596.8,410l1.8-3.1c1.6,1.1,3.4,1.9,5.3,2.6,1.9.6,3.8.9,5.5.9s3.8-.4,5.1-1.3c1.3-.9,1.9-2,1.9-3.3s-.6-2.4-1.8-3c-1.2-.7-3.1-1-5.6-1.1-4.3,0-7.3-.6-8.9-1.5-1.6-.9-2.4-2.5-2.4-4.7s.9-3.7,2.7-4.9c1.8-1.2,4.1-1.9,7.1-1.9s4,.3,5.9.9,3.8,1.4,5.5,2.6l-1.9,3.1c-1.5-1-3.1-1.8-4.8-2.3s-3.3-.8-4.9-.8-3.2.3-4.3.9c-1.1.6-1.6,1.5-1.6,2.5s.6,1.8,1.7,2.3c1.1.4,3,.7,5.7.7s6.6.6,8.6,1.9,2.9,3.2,2.9,5.7-1,4.1-2.9,5.6c-2,1.5-4.5,2.2-7.6,2.2s-4.6-.3-6.9-1c-2.3-.7-4.4-1.6-6.2-2.8Z"/>
        </g>
        <path class="cls-4" d="M380.9,319.7l-17.8-26.5-8.7-13v51.1s-30.4,45.4-30.4,45.4h316.8v-173.4h-182.1l-77.7,116.5Z"/>
        <path class="cls-2" d="M338.1,248.6h14l28.8,43.5,59.5-88.9H176.6v173.4h130.4l31-45.4v-82.6Z"/>
        <polygon class="cls-1" points="220.8 264.3 252.7 264.3 252.7 331.2 269.1 331.2 269.1 264.3 300.9 264.3 300.9 248.6 220.8 248.6 220.8 264.3"/>
        <rect class="cls-1" x="309.2" y="248.2" width="16.6" height="83.3"/>
        <path class="cls-1" d="M430.9,290.1c0,25,18.1,43.1,42.7,43.1s42.8-18.1,42.8-43.1-18.2-43.2-42.8-43.2-42.7,18.2-42.7,43.2ZM499.5,290.1c0,16-11.1,27.2-26,27.2s-26-11.1-26-27.2,11.2-27.4,26-27.4,26,11.2,26,27.4Z"/>
        <polygon class="cls-1" points="508.1 331.2 528.2 331.2 551.9 302.2 575.3 331.2 596.5 331.2 562.3 289.3 595.7 248.6 575.2 248.6 552.2 276.8 529 248.6 508.6 248.6 541.8 289.7 508.1 331.2"/>
        <polygon class="cls-1" points="354.3 280.2 354.3 280.2 354.3 280.2 363.1 293.2 380.9 319.7 458.6 203.2 440.3 203.2 380.9 292.1 352.1 248.6 338.1 248.6 338.1 331.2 338.1 331.2 307.1 376.6 323.9 376.6 354.3 331.3 354.3 280.2"/>
        <polygon class="cls-1" points="407.4 331.2 423.7 331.2 423.7 270.5 407.4 294.7 407.4 331.2"/>
      </g>
    </g>
  </g>
</svg>